<svg aria-hidden="true" style="position: absolute; width: 0; height: 0; overflow: hidden;" version="1.1" xmlns="http://www.w3.org/2000/svg" xmlns:xlink="http://www.w3.org/1999/xlink">
<defs>

<symbol id="icon-location" xmlns="http://www.w3.org/2000/svg" viewBox="0 0 384 512"><!--! Font Awesome Pro 6.2.0 by @fontawesome - https://fontawesome.com License - https://fontawesome.com/license (Commercial License) Copyright 2022 Fonticons, Inc. --><path d="M215.7 499.2C267 435 384 279.4 384 192C384 86 298 0 192 0S0 86 0 192c0 87.4 117 243 168.3 307.2c12.3 15.3 35.1 15.3 47.4 0zM192 256c-35.3 0-64-28.7-64-64s28.7-64 64-64s64 28.7 64 64s-28.7 64-64 64z"/></symbol>

<symbol id="icon-mobile" xmlns="http://www.w3.org/2000/svg" viewBox="0 0 384 512"><!--! Font Awesome Pro 6.2.0 by @fontawesome - https://fontawesome.com License - https://fontawesome.com/license (Commercial License) Copyright 2022 Fonticons, Inc. --><path d="M16 64C16 28.7 44.7 0 80 0H304c35.3 0 64 28.7 64 64V448c0 35.3-28.7 64-64 64H80c-35.3 0-64-28.7-64-64V64zM224 448c0-17.7-14.3-32-32-32s-32 14.3-32 32s14.3 32 32 32s32-14.3 32-32zM304 64H80V384H304V64z"/></symbol>

<symbol id="icon-list" xmlns="http://www.w3.org/2000/svg" viewBox="0 0 512 512"><!--! Font Awesome Pro 6.2.0 by @fontawesome - https://fontawesome.com License - https://fontawesome.com/license (Commercial License) Copyright 2022 Fonticons, Inc. --><path d="M40 48C26.7 48 16 58.7 16 72v48c0 13.3 10.7 24 24 24H88c13.3 0 24-10.7 24-24V72c0-13.3-10.7-24-24-24H40zM192 64c-17.7 0-32 14.3-32 32s14.3 32 32 32H480c17.7 0 32-14.3 32-32s-14.3-32-32-32H192zm0 160c-17.7 0-32 14.3-32 32s14.3 32 32 32H480c17.7 0 32-14.3 32-32s-14.3-32-32-32H192zm0 160c-17.7 0-32 14.3-32 32s14.3 32 32 32H480c17.7 0 32-14.3 32-32s-14.3-32-32-32H192zM16 232v48c0 13.3 10.7 24 24 24H88c13.3 0 24-10.7 24-24V232c0-13.3-10.7-24-24-24H40c-13.3 0-24 10.7-24 24zM40 368c-13.3 0-24 10.7-24 24v48c0 13.3 10.7 24 24 24H88c13.3 0 24-10.7 24-24V392c0-13.3-10.7-24-24-24H40z"/></symbol>

<symbol id="icon-restaurant" xmlns="http://www.w3.org/2000/svg" viewBox="0 0 576 512"><!--! Font Awesome Pro 6.2.0 by @fontawesome - https://fontawesome.com License - https://fontawesome.com/license (Commercial License) Copyright 2022 Fonticons, Inc. --><path d="M547.6 103.8L490.3 13.1C485.2 5 476.1 0 466.4 0H109.6C99.9 0 90.8 5 85.7 13.1L28.3 103.8c-29.6 46.8-3.4 111.9 51.9 119.4c4 .5 8.1 .8 12.1 .8c26.1 0 49.3-11.4 65.2-29c15.9 17.6 39.1 29 65.2 29c26.1 0 49.3-11.4 65.2-29c15.9 17.6 39.1 29 65.2 29c26.2 0 49.3-11.4 65.2-29c16 17.6 39.1 29 65.2 29c4.1 0 8.1-.3 12.1-.8c55.5-7.4 81.8-72.5 52.1-119.4zM499.7 254.9l-.1 0c-5.3 .7-10.7 1.1-16.2 1.1c-12.4 0-24.3-1.9-35.4-5.3V384H128V250.6c-11.2 3.5-23.2 5.4-35.6 5.4c-5.5 0-11-.4-16.3-1.1l-.1 0c-4.1-.6-8.1-1.3-12-2.3V384v64c0 35.3 28.7 64 64 64H448c35.3 0 64-28.7 64-64V384 252.6c-4 1-8 1.8-12.3 2.3z"/></symbol>

<symbol id="icon-heart-stroke" xmlns="http://www.w3.org/2000/svg" viewBox="0 0 512 512"><!--! Font Awesome Pro 6.2.0 by @fontawesome - https://fontawesome.com License - https://fontawesome.com/license (Commercial License) Copyright 2022 Fonticons, Inc. --><path d="M244 84L255.1 96L267.1 84.02C300.6 51.37 347 36.51 392.6 44.1C461.5 55.58 512 115.2 512 185.1V190.9C512 232.4 494.8 272.1 464.4 300.4L283.7 469.1C276.2 476.1 266.3 480 256 480C245.7 480 235.8 476.1 228.3 469.1L47.59 300.4C17.23 272.1 0 232.4 0 190.9V185.1C0 115.2 50.52 55.58 119.4 44.1C164.1 36.51 211.4 51.37 244 84C243.1 84 244 84.01 244 84L244 84zM255.1 163.9L210.1 117.1C188.4 96.28 157.6 86.4 127.3 91.44C81.55 99.07 48 138.7 48 185.1V190.9C48 219.1 59.71 246.1 80.34 265.3L256 429.3L431.7 265.3C452.3 246.1 464 219.1 464 190.9V185.1C464 138.7 430.4 99.07 384.7 91.44C354.4 86.4 323.6 96.28 301.9 117.1L255.1 163.9z"/></symbol>

<symbol id="icon-handshake" xmlns="http://www.w3.org/2000/svg" viewBox="0 0 640 512"><!--! Font Awesome Pro 6.2.0 by @fontawesome - https://fontawesome.com License - https://fontawesome.com/license (Commercial License) Copyright 2022 Fonticons, Inc. --><path d="M323.4 85.2l-96.8 78.4c-16.1 13-19.2 36.4-7 53.1c12.9 17.8 38 21.3 55.3 7.8l99.3-77.2c7-5.4 17-4.2 22.5 2.8s4.2 17-2.8 22.5l-20.9 16.2L512 316.8V128h-.7l-3.9-2.5L434.8 79c-15.3-9.8-33.2-15-51.4-15c-21.8 0-43 7.5-60 21.2zm22.8 124.4l-51.7 40.2C263 274.4 217.3 268 193.7 235.6c-22.2-30.5-16.6-73.1 12.7-96.8l83.2-67.3c-11.6-4.9-24.1-7.4-36.8-7.4C234 64 215.7 69.6 200 80l-72 48V352h28.2l91.4 83.4c19.6 17.9 49.9 16.5 67.8-3.1c5.5-6.1 9.2-13.2 11.1-20.6l17 15.6c19.5 17.9 49.9 16.6 67.8-2.9c4.5-4.9 7.8-10.6 9.9-16.5c19.4 13 45.8 10.3 62.1-7.5c17.9-19.5 16.6-49.9-2.9-67.8l-134.2-123zM96 128H0V352c0 17.7 14.3 32 32 32H64c17.7 0 32-14.3 32-32V128zM48 352c-8.8 0-16-7.2-16-16s7.2-16 16-16s16 7.2 16 16s-7.2 16-16 16zM544 128V352c0 17.7 14.3 32 32 32h32c17.7 0 32-14.3 32-32V128H544zm64 208c0 8.8-7.2 16-16 16s-16-7.2-16-16s7.2-16 16-16s16 7.2 16 16z"/></symbol>

<symbol id="icon-eat" xmlns="http://www.w3.org/2000/svg" viewBox="0 0 448 512"><!--! Font Awesome Pro 6.2.0 by @fontawesome - https://fontawesome.com License - https://fontawesome.com/license (Commercial License) Copyright 2022 Fonticons, Inc. --><path d="M416 0C400 0 288 32 288 176V288c0 35.3 28.7 64 64 64h32V480c0 17.7 14.3 32 32 32s32-14.3 32-32V352 240 32c0-17.7-14.3-32-32-32zM64 16C64 7.8 57.9 1 49.7 .1S34.2 4.6 32.4 12.5L2.1 148.8C.7 155.1 0 161.5 0 167.9c0 45.9 35.1 83.6 80 87.7V480c0 17.7 14.3 32 32 32s32-14.3 32-32V255.6c44.9-4.1 80-41.8 80-87.7c0-6.4-.7-12.8-2.1-19.1L191.6 12.5c-1.8-8-9.3-13.3-17.4-12.4S160 7.8 160 16V150.2c0 5.4-4.4 9.8-9.8 9.8c-5.1 0-9.3-3.9-9.8-9L127.9 14.6C127.2 6.3 120.3 0 112 0s-15.2 6.3-15.9 14.6L83.7 151c-.5 5.1-4.7 9-9.8 9c-5.4 0-9.8-4.4-9.8-9.8V16zm48.3 152l-.3 0-.3 0 .3-.7 .3 .7z"/></symbol>

<symbol id="icon-check" xmlns="http://www.w3.org/2000/svg" viewBox="0 0 512 512"><!--! Font Awesome Pro 6.2.0 by @fontawesome - https://fontawesome.com License - https://fontawesome.com/license (Commercial License) Copyright 2022 Fonticons, Inc. --><path d="M470.6 105.4c12.5 12.5 12.5 32.8 0 45.3l-256 256c-12.5 12.5-32.8 12.5-45.3 0l-128-128c-12.5-12.5-12.5-32.8 0-45.3s32.8-12.5 45.3 0L192 338.7 425.4 105.4c12.5-12.5 32.8-12.5 45.3 0z"/></symbol>

<symbol id="icon-arrow-back" xmlns="http://www.w3.org/2000/svg" viewBox="0 0 448 512"><!--! Font Awesome Pro 6.2.0 by @fontawesome - https://fontawesome.com License - https://fontawesome.com/license (Commercial License) Copyright 2022 Fonticons, Inc. --><path d="M9.4 233.4c-12.5 12.5-12.5 32.8 0 45.3l160 160c12.5 12.5 32.8 12.5 45.3 0s12.5-32.8 0-45.3L109.2 288 416 288c17.7 0 32-14.3 32-32s-14.3-32-32-32l-306.7 0L214.6 118.6c12.5-12.5 12.5-32.8 0-45.3s-32.8-12.5-45.3 0l-160 160z"/></symbol>

<svg id="logo-ohmyfood" viewBox="0 0 196 34" xmlns="http://www.w3.org/2000/svg">
<path fill-rule="evenodd" clip-rule="evenodd" d="M44.5579 22.068C44.5579 21.876 44.5819 21.732 44.6299 21.636L46.8259 14.544C47.0659 13.824 47.1859 13.092 47.1859 12.348C47.1859 10.932 46.7299 9.78003 45.8179 8.89203C44.9299 8.00403 43.7539 7.56 42.2899 7.56C41.0659 7.56 39.9259 7.79999 38.8699 8.28003C37.8379 8.76001 36.8539 9.612 35.9179 10.836L37.8619 4.5C38.0299 3.99597 38.1139 3.47998 38.1139 2.95203C38.1139 2.03998 37.7779 1.32001 37.1059 0.791992C36.4579 0.263977 35.4379 0 34.0459 0C32.5579 0 31.1299 0.203979 29.7619 0.612C28.3939 1.02002 27.6379 1.5 27.4939 2.052C27.4219 2.29199 27.4339 2.48401 27.5299 2.62799C27.6499 2.77197 27.8299 2.94 28.0699 3.13202C28.2859 3.29999 28.4539 3.46802 28.5739 3.63599C28.7179 3.80402 28.7899 4.02002 28.7899 4.284C28.7899 4.42798 28.7539 4.60797 28.6819 4.82397L23.2099 22.788C23.0419 23.364 22.8379 23.784 22.5979 24.048C22.3579 24.312 22.0579 24.54 21.6979 24.732C21.2899 24.948 21.0379 25.2 20.9419 25.488C20.8459 25.824 20.9419 26.1 21.2299 26.316C21.5179 26.508 21.9739 26.604 22.5979 26.604H30.8059C31.5499 26.604 32.1019 26.532 32.4619 26.388C32.8219 26.244 33.0619 26.016 33.1819 25.704C33.2299 25.536 33.2179 25.404 33.1459 25.308C33.0739 25.188 32.9539 25.044 32.7859 24.876C32.5699 24.708 32.4019 24.54 32.2819 24.372C32.1619 24.18 32.1019 23.928 32.1019 23.616C32.1019 23.4 32.1379 23.148 32.2099 22.86L34.4779 15.552V15.624C34.7659 14.688 35.1379 14.016 35.5939 13.608C36.0739 13.176 36.5419 12.96 36.9979 12.96C37.2859 12.96 37.5259 13.056 37.7179 13.248C37.9339 13.416 38.0419 13.656 38.0419 13.968C38.0419 14.16 37.9819 14.412 37.8619 14.724L35.8819 19.908C35.4499 21.012 35.2339 22.008 35.2339 22.896C35.2579 24.12 35.7379 25.104 36.6739 25.848C37.6099 26.568 38.8699 26.928 40.4539 26.928C41.7499 26.928 42.8539 26.724 43.7659 26.316C44.7019 25.884 45.4099 25.344 45.8899 24.696C46.3699 24.024 46.5979 23.34 46.5739 22.644C46.5739 22.428 46.5379 22.248 46.4659 22.104C46.3939 21.936 46.2979 21.852 46.1779 21.852C46.1059 21.852 45.9619 21.984 45.7459 22.248C45.5539 22.488 45.3139 22.608 45.0259 22.608C44.8819 22.608 44.7619 22.56 44.6659 22.464C44.5939 22.368 44.5579 22.236 44.5579 22.068ZM20.772 9.53998C19.236 8.21997 16.836 7.56 13.572 7.56C11.46 7.56 9.468 7.96802 7.59599 8.784C5.748 9.57599 4.17599 10.704 2.88 12.168C1.608 13.608 0.744003 15.264 0.287994 17.136C0.095993 18.048 0 18.876 0 19.62C0 21.828 0.792007 23.604 2.37601 24.948C3.98399 26.268 6.45599 26.928 9.79199 26.928C11.904 26.928 13.86 26.532 15.66 25.74C17.484 24.924 19.02 23.784 20.268 22.32C21.516 20.832 22.368 19.104 22.824 17.136C23.016 16.248 23.112 15.444 23.112 14.724C23.112 12.588 22.332 10.86 20.772 9.53998ZM11.844 12.132C12.42 11.22 12.96 10.764 13.464 10.764C13.752 10.764 13.968 10.86 14.112 11.052C14.28 11.244 14.364 11.592 14.364 12.096C14.364 13.152 13.992 14.844 13.248 17.172C12.432 19.812 11.748 21.588 11.196 22.5C10.668 23.412 10.152 23.844 9.64799 23.796C9.36 23.796 9.132 23.712 8.964 23.544C8.79601 23.352 8.71201 22.992 8.71201 22.464C8.71201 21.456 9.09599 19.704 9.864 17.208C10.632 14.712 11.292 13.02 11.844 12.132ZM82.3565 21.636C82.3085 21.732 82.2845 21.876 82.2845 22.068C82.2845 22.236 82.3205 22.368 82.3925 22.464C82.4885 22.56 82.6085 22.608 82.7525 22.608C83.0405 22.608 83.2805 22.488 83.4725 22.248C83.6885 21.984 83.8325 21.852 83.9045 21.852C84.0245 21.852 84.1205 21.936 84.1925 22.104C84.2645 22.248 84.3005 22.428 84.3005 22.644C84.3245 23.34 84.0965 24.024 83.6165 24.696C83.1365 25.344 82.4285 25.884 81.4925 26.316C80.5805 26.724 79.4765 26.928 78.1805 26.928C76.5965 26.928 75.3365 26.568 74.4005 25.848C73.4645 25.104 72.9845 24.12 72.9605 22.896C72.9605 22.008 73.1765 21.012 73.6085 19.908L75.5885 14.724C75.7085 14.412 75.7685 14.16 75.7685 13.968C75.7685 13.656 75.6605 13.416 75.4445 13.248C75.2525 13.056 75.0125 12.96 74.7245 12.96C74.3165 12.96 73.8965 13.14 73.4645 13.5C73.0325 13.86 72.6485 14.424 72.3125 15.192L70.3325 21.636C70.2845 21.732 70.2605 21.876 70.2605 22.068C70.2605 22.236 70.2965 22.368 70.3685 22.464C70.4645 22.56 70.5845 22.608 70.7285 22.608C71.0165 22.608 71.2565 22.488 71.4485 22.248C71.6645 21.984 71.8085 21.852 71.8805 21.852C72.0005 21.852 72.0965 21.936 72.1685 22.104C72.2405 22.248 72.2765 22.428 72.2765 22.644C72.3005 23.34 72.0725 24.024 71.5925 24.696C71.1125 25.344 70.4045 25.884 69.4685 26.316C68.5565 26.724 67.4525 26.928 66.1565 26.928C64.5725 26.928 63.3125 26.568 62.3765 25.848C61.4405 25.104 60.9605 24.12 60.9365 22.896C60.9365 22.008 61.1525 21.012 61.5845 19.908L63.5645 14.724C63.6845 14.412 63.7445 14.16 63.7445 13.968C63.7445 13.656 63.6365 13.416 63.4205 13.248C63.2285 13.056 62.9885 12.96 62.7005 12.96C62.2925 12.96 61.8725 13.14 61.4405 13.5C61.0085 13.836 60.6485 14.388 60.3605 15.156L57.9845 22.86C57.8885 23.124 57.8405 23.376 57.8405 23.616C57.8405 23.904 57.9005 24.144 58.0205 24.336C58.1405 24.504 58.3085 24.684 58.5245 24.876C58.6925 25.02 58.8125 25.152 58.8845 25.272C58.9565 25.392 58.9685 25.536 58.9205 25.704C58.8245 26.016 58.5965 26.244 58.2365 26.388C57.8765 26.532 57.3125 26.604 56.5445 26.604H48.3365C47.7125 26.604 47.2685 26.508 47.0045 26.316C46.7165 26.1 46.6085 25.824 46.6805 25.488C46.7765 25.2 47.0285 24.948 47.4365 24.732C47.7965 24.54 48.0965 24.312 48.3365 24.048C48.5765 23.784 48.7805 23.364 48.9485 22.788L52.1525 12.384C52.2005 12.264 52.2245 12.096 52.2245 11.88C52.2245 11.616 52.1645 11.412 52.0445 11.268C51.9485 11.124 51.7805 10.944 51.5405 10.728C51.3005 10.536 51.1325 10.368 51.0365 10.224C50.9405 10.08 50.9285 9.888 51.0005 9.64801C51.1445 9.09601 51.9005 8.61603 53.2685 8.20801C54.6365 7.776 56.0645 7.56 57.5525 7.56C58.7285 7.56 59.6525 7.88397 60.3245 8.53198C61.0205 9.17999 61.3565 10.068 61.3325 11.196C62.3165 9.828 63.3485 8.88 64.4285 8.35199C65.5325 7.82397 66.7205 7.56 67.9925 7.56C69.3845 7.56 70.5125 7.96802 71.3765 8.784C72.2645 9.57599 72.7565 10.62 72.8525 11.916C73.8845 10.284 74.9885 9.15601 76.1645 8.53198C77.3405 7.88397 78.6245 7.56 80.0165 7.56C81.4805 7.56 82.6565 8.00403 83.5445 8.89203C84.4565 9.78003 84.9125 10.932 84.9125 12.348C84.9125 13.092 84.7925 13.824 84.5525 14.544L82.3565 21.636ZM107.092 8.85602C106.468 7.992 105.628 7.56 104.572 7.56C103.804 7.56 103.108 7.81201 102.484 8.31598C101.884 8.79602 101.44 9.51599 101.152 10.476C100.96 11.076 100.864 11.748 100.864 12.492C100.864 13.452 101.056 14.352 101.44 15.192C101.824 16.032 102.376 16.776 103.096 17.424C102.544 18.864 101.98 19.98 101.404 20.772C100.828 21.54 100.324 21.924 99.8916 21.924C99.5316 21.924 99.3156 21.624 99.2436 21.024L98.1636 13.104C97.9476 11.208 97.4676 9.80402 96.7236 8.89203C96.0036 7.97998 94.8756 7.52399 93.3396 7.52399C91.7796 7.52399 90.4116 8.00403 89.2356 8.96399C88.0596 9.90002 87.2556 11.052 86.8236 12.42C86.7036 12.804 86.6436 13.164 86.6436 13.5C86.6436 13.908 86.7396 14.112 86.9316 14.112C87.0276 14.112 87.1836 14.028 87.3996 13.86C87.6396 13.692 87.8436 13.608 88.0116 13.608C88.2276 13.608 88.3956 13.704 88.5156 13.896C88.6596 14.064 88.7676 14.376 88.8396 14.832L90.2796 23.652C90.4956 24.948 90.8916 25.908 91.4676 26.532C92.0676 27.132 92.9796 27.54 94.2036 27.756C92.9076 29.004 91.4916 29.664 89.9556 29.736C89.7636 28.416 89.3076 27.372 88.5876 26.604C87.8916 25.86 86.9916 25.488 85.8876 25.488C85.1916 25.488 84.5916 25.668 84.0876 26.028C83.5836 26.388 83.2236 26.904 83.0076 27.576C82.8876 28.008 82.8276 28.404 82.8276 28.764C82.8276 29.58 83.0676 30.348 83.5476 31.068C84.0036 31.788 84.6756 32.364 85.5636 32.796C86.4756 33.228 87.5556 33.444 88.8036 33.444C91.3236 33.444 93.8436 32.652 96.3636 31.068C98.9076 29.484 101.152 27.384 103.096 24.768C105.064 22.152 106.492 19.368 107.38 16.416C107.836 14.952 108.064 13.584 108.064 12.312C108.064 10.848 107.74 9.69598 107.092 8.85602ZM122.504 0C125.072 0 126.992 0.395996 128.264 1.18799C129.56 1.95599 130.208 2.90399 130.208 4.03198C130.208 4.94397 129.824 5.65198 129.056 6.15601C128.312 6.63599 127.328 6.87598 126.104 6.87598C124.976 6.87598 124.1 6.59998 123.476 6.04797C122.852 5.49597 122.54 4.81201 122.54 3.99597C122.54 3.492 122.696 2.96399 123.008 2.41199C122.288 2.41199 121.688 2.59198 121.208 2.95203C120.728 3.28802 120.356 3.87598 120.092 4.716C119.948 5.24402 119.876 5.73602 119.876 6.19202C119.876 6.76801 119.972 7.224 120.164 7.56C120.38 7.87201 120.68 8.02802 121.064 8.02802H123.188C124.436 8.02802 125.06 8.41199 125.06 9.17999C125.06 9.276 125.036 9.41998 124.988 9.612C124.844 10.14 124.544 10.536 124.088 10.8C123.656 11.064 122.996 11.196 122.108 11.196H121.028L117.464 22.86C117.392 23.148 117.356 23.4 117.356 23.616C117.356 23.928 117.416 24.18 117.536 24.372C117.656 24.54 117.824 24.708 118.04 24.876C118.208 25.044 118.328 25.188 118.4 25.308C118.472 25.404 118.484 25.536 118.436 25.704C118.316 26.016 118.076 26.244 117.716 26.388C117.356 26.532 116.804 26.604 116.06 26.604H107.852C107.228 26.604 106.772 26.508 106.484 26.316C106.196 26.1 106.1 25.824 106.196 25.488C106.292 25.2 106.544 24.948 106.952 24.732C107.312 24.54 107.612 24.312 107.852 24.048C108.092 23.784 108.296 23.364 108.464 22.788L111.272 13.572C111.392 13.212 111.452 12.84 111.452 12.456C111.452 11.976 111.344 11.604 111.128 11.34C110.936 11.052 110.636 10.74 110.228 10.404C109.964 10.188 109.76 10.008 109.616 9.86401C109.496 9.69598 109.436 9.50403 109.436 9.28802C109.412 8.83197 109.568 8.508 109.904 8.31598C110.264 8.12402 110.936 8.02802 111.92 8.02802H112.82C112.652 7.42798 112.568 6.828 112.568 6.22803C112.568 5.62799 112.676 5.00403 112.892 4.35602C113.348 3.13202 114.32 2.09998 115.808 1.26001C117.32 0.419983 119.552 0 122.504 0ZM143.924 9.53998C142.388 8.21997 139.988 7.56 136.724 7.56C134.612 7.56 132.62 7.96802 130.748 8.784C128.9 9.57599 127.328 10.704 126.032 12.168C124.76 13.608 123.896 15.264 123.44 17.136C123.248 18.048 123.152 18.876 123.152 19.62C123.152 21.828 123.944 23.604 125.528 24.948C127.136 26.268 129.608 26.928 132.944 26.928C135.056 26.928 137.012 26.532 138.812 25.74C140.636 24.924 142.172 23.784 143.42 22.32C144.668 20.832 145.52 19.104 145.976 17.136C146.168 16.248 146.264 15.444 146.264 14.724C146.264 12.588 145.484 10.86 143.924 9.53998ZM134.996 12.132C135.572 11.22 136.112 10.764 136.616 10.764C136.904 10.764 137.12 10.86 137.264 11.052C137.432 11.244 137.516 11.592 137.516 12.096C137.516 13.152 137.144 14.844 136.4 17.172C135.584 19.812 134.9 21.588 134.348 22.5C133.82 23.412 133.304 23.844 132.8 23.796C132.512 23.796 132.284 23.712 132.116 23.544C131.948 23.352 131.864 22.992 131.864 22.464C131.864 21.456 132.248 19.704 133.016 17.208C133.784 14.712 134.444 13.02 134.996 12.132ZM160.349 7.56C163.613 7.56 166.013 8.21997 167.549 9.53998C169.109 10.86 169.889 12.588 169.889 14.724C169.889 15.444 169.793 16.248 169.601 17.136C169.145 19.104 168.293 20.832 167.045 22.32C165.797 23.784 164.261 24.924 162.437 25.74C160.637 26.532 158.681 26.928 156.569 26.928C153.233 26.928 150.761 26.268 149.153 24.948C147.569 23.604 146.777 21.828 146.777 19.62C146.777 18.876 146.873 18.048 147.065 17.136C147.521 15.264 148.385 13.608 149.657 12.168C150.953 10.704 152.525 9.57599 154.373 8.784C156.245 7.96802 158.237 7.56 160.349 7.56ZM160.241 10.764C159.737 10.764 159.197 11.22 158.621 12.132C158.069 13.02 157.409 14.712 156.641 17.208C155.873 19.704 155.489 21.456 155.489 22.464C155.489 22.992 155.573 23.352 155.741 23.544C155.909 23.712 156.137 23.796 156.425 23.796C156.929 23.844 157.445 23.412 157.973 22.5C158.525 21.588 159.209 19.812 160.025 17.172C160.769 14.844 161.141 13.152 161.141 12.096C161.141 11.592 161.057 11.244 160.889 11.052C160.745 10.86 160.529 10.764 160.241 10.764ZM190.094 21.816C190.094 21.744 190.118 21.612 190.166 21.42L195.314 4.5C195.482 3.99597 195.566 3.47998 195.566 2.95203C195.566 2.03998 195.23 1.32001 194.558 0.791992C193.91 0.263977 192.89 0 191.498 0C190.01 0 188.582 0.203979 187.214 0.612C185.846 1.02002 185.09 1.5 184.946 2.052C184.874 2.29199 184.886 2.48401 184.982 2.62799C185.102 2.77197 185.282 2.94 185.522 3.13202C185.738 3.29999 185.906 3.46802 186.026 3.63599C186.17 3.80402 186.242 4.02002 186.242 4.284C186.242 4.42798 186.206 4.60797 186.134 4.82397L184.91 8.85602C184.31 8.37598 183.638 8.01599 182.894 7.776C182.174 7.53601 181.298 7.41602 180.266 7.41602C178.37 7.41602 176.678 8.01599 175.19 9.216C173.702 10.392 172.538 11.952 171.698 13.896C170.882 15.816 170.474 17.868 170.474 20.052C170.474 21.348 170.75 22.512 171.302 23.544C171.878 24.552 172.634 25.332 173.57 25.884C174.53 26.436 175.562 26.712 176.666 26.712C177.602 26.712 178.49 26.508 179.33 26.1C180.17 25.692 180.914 25.068 181.562 24.228C181.898 24.972 182.51 25.572 183.398 26.028C184.286 26.484 185.33 26.712 186.53 26.712C187.538 26.712 188.474 26.496 189.338 26.064C190.202 25.632 190.886 25.08 191.39 24.408C191.918 23.736 192.17 23.076 192.146 22.428C192.146 22.212 192.11 22.02 192.038 21.852C191.966 21.684 191.87 21.6 191.75 21.6C191.678 21.6 191.534 21.732 191.318 21.996C191.126 22.236 190.886 22.356 190.598 22.356C190.454 22.356 190.334 22.308 190.238 22.212C190.142 22.116 190.094 21.984 190.094 21.816ZM182.894 10.8C183.35 10.8 183.77 10.968 184.154 11.304L181.346 20.412C181.154 20.988 180.95 21.408 180.734 21.672C180.518 21.912 180.254 22.032 179.942 22.032C179.078 22.032 178.646 21.372 178.646 20.052C178.622 18.876 178.814 17.556 179.222 16.092C179.63 14.628 180.17 13.38 180.842 12.348C181.514 11.316 182.198 10.8 182.894 10.8Z"/>
</svg>


</defs>
</svg>


